<?xml version="1.0" encoding="UTF-8" standalone="no"?>
<svg width="2287px" height="512px" viewBox="0 0 2287 512" version="1.1" xmlns="http://www.w3.org/2000/svg" xmlns:xlink="http://www.w3.org/1999/xlink" style="background: #86CDEA;">
    <!-- Generator: Sketch 3.8.3 (29802) - http://www.bohemiancoding.com/sketch -->
    <title>Desktop HD</title>
    <desc>Created with Sketch.</desc>
    <defs>
        <linearGradient x1="50%" y1="0%" x2="50%" y2="100%" id="linearGradient-1">
            <stop stop-color="#DCDCDC" offset="0%"></stop>
            <stop stop-color="#C6C6C6" offset="100%"></stop>
        </linearGradient>
    </defs>
    <g id="Page-1" stroke="none" stroke-width="1" fill="none" fill-rule="evenodd">
        <g id="Desktop-HD">
            <ellipse id="Oval-1" fill="#CDE9AE" cx="373.5" cy="413" rx="520.5" ry="270"></ellipse>
            <ellipse id="Oval-1-Copy" fill="#CDE9AE" cx="1015.5" cy="458" rx="520.5" ry="270"></ellipse>
            <ellipse id="Oval-1-Copy-2" fill="#CDE9AE" cx="1897.5" cy="407" rx="520.5" ry="270"></ellipse>
            <rect id="Rectangle-1" fill="url(#linearGradient-1)" x="0" y="407" width="2287" height="73"></rect>
            <path d="M1719.73061,55.3009998 C1714.0764,44.6113884 1699.48815,37 1682.38323,37 C1665.42651,37 1650.94302,44.4800809 1645.18481,55.0238756 C1628.7419,59.9099337 1618,67.9807082 1618,77.1098092 C1618,92.0198334 1646.65378,104.106796 1682,104.106796 C1717.34622,104.106796 1746,92.0198334 1746,77.1098092 C1746,68.1512335 1735.65565,60.2118159 1719.73061,55.3009998 Z" id="Combined-Shape" fill="#F3F3F3"></path>
            <path d="M2165.73061,72.3009998 C2160.0764,61.6113884 2145.48815,54 2128.38323,54 C2111.42651,54 2096.94302,61.4800809 2091.18481,72.0238756 C2074.7419,76.9099337 2064,84.9807082 2064,94.1098092 C2064,109.019833 2092.65378,121.106796 2128,121.106796 C2163.34622,121.106796 2192,109.019833 2192,94.1098092 C2192,85.1512335 2181.65565,77.2118159 2165.73061,72.3009998 Z" id="Combined-Shape-Copy-5" fill="#F3F3F3"></path>
            <path d="M966.730614,105.301 C961.076401,94.6113884 946.488145,87 929.383234,87 C912.426506,87 897.943018,94.4800809 892.184812,105.023876 C875.741902,109.909934 865,117.980708 865,127.109809 C865,142.019833 893.653776,154.106796 929,154.106796 C964.346224,154.106796 993,142.019833 993,127.109809 C993,118.151233 982.655652,110.211816 966.730614,105.301 Z" id="Combined-Shape-Copy-3" fill="#F3F3F3"></path>
            <path d="M1407.73061,21.3009998 C1402.0764,10.6113884 1387.48815,3 1370.38323,3 C1353.42651,3 1338.94302,10.4800809 1333.18481,21.0238756 C1316.7419,25.9099337 1306,33.9807082 1306,43.1098092 C1306,58.0198334 1334.65378,70.1067961 1370,70.1067961 C1405.34622,70.1067961 1434,58.0198334 1434,43.1098092 C1434,34.1512335 1423.65565,26.2118159 1407.73061,21.3009998 Z" id="Combined-Shape-Copy-4" fill="#F3F3F3"></path>
            <path d="M629.730614,21.3009998 C624.076401,10.6113884 609.488145,3 592.383234,3 C575.426506,3 560.943018,10.4800809 555.184812,21.0238756 C538.741902,25.9099337 528,33.9807082 528,43.1098092 C528,58.0198334 556.653776,70.1067961 592,70.1067961 C627.346224,70.1067961 656,58.0198334 656,43.1098092 C656,34.1512335 645.655652,26.2118159 629.730614,21.3009998 Z" id="Combined-Shape-Copy" fill="#F3F3F3"></path>
            <path d="M222.730614,59.3009998 C217.076401,48.6113884 202.488145,41 185.383234,41 C168.426506,41 153.943018,48.4800809 148.184812,59.0238756 C131.741902,63.9099337 121,71.9807082 121,81.1098092 C121,96.0198334 149.653776,108.106796 185,108.106796 C220.346224,108.106796 249,96.0198334 249,81.1098092 C249,72.1512335 238.655652,64.2118159 222.730614,59.3009998 Z" id="Combined-Shape-Copy-2" fill="#F3F3F3"></path>
        </g>
    </g>
</svg>